{"title":"Captain America The Winter Soldier 2014 BDRip 10800p x264 Quad A","uid":10782005,"size":4765651151,"categoryP":"video","categoryS":"hd___movies","magnet":"?xt=urn:btih:0146762523942a5a7eddccd0a3ebc3a65edf7005&amp;dn=Captain+America+The+Winter+Soldier+2014+BDRip+10800p+x264+Quad+A&amp;tr=udp%3A%2F%2Ftracker.openbittorrent.com%3A80&amp;tr=udp%3A%2F%2Fopen.demonii.com%3A1337&amp;tr=udp%3A%2F%2Ftracker.coppersurfer.tk%3A6969&amp;tr=udp%3A%2F%2Fexodus.desync.com%3A6969","seeders":7,"leechers":0,"uploader":"Dj_YsB","files":10,"time":1408175007,"description":"Captain America The Winter Soldier 2014 BDRip 10800p x264 Quad Audio 5.1Ch [Hindi-Tamil-Telugu-Eng] YsB TeaM FL\n &lt;a href=&quot;\nhttp://i.imgur.com/nBlmw8r.jpg&quot; rel=&quot;nofollow&quot; target=&quot;_NEW&quot;&gt;\nhttp://i.imgur.com/nBlmw8r.jpg&lt;/a&gt;\n\nInfo:\nGeneral\nComplete name                            : Captain America The Winter Soldier 2014 BDRip 10800p x264 Quad Audio 5.1Ch [Hindi-Tamil-Telugu-Eng] YsB TeaM FL.mkv\nFormat                                   : Matroska\nFormat version                           : Version 4 / Version 2\nFile size                                : 4.37 GiB\nDuration                                 : 2h 15mn\nOverall bit rate                         : 4 604 Kbps\nMovie name                               : Captain America The Winter Soldier 2014 BDRip 10800p x264 Quad Audio 5.1Ch [Hindi-Tamil-Telugu-Eng] YsB TeaM FL\n\nVideo\nID                                       : 1\nFormat                                   : AVC\nDuration                                 : 2h 15mn\nNominal bit rate                         : 3 072 Kbps\nWidth                                    : 1 920 pixels\nHeight                                   : 800 pixels\nFrame rate                               : 23.976 fps\nTitle                                    : YsB TeaM FL\n\nAudio #1\nID                                       : 2\nFormat                                   : AC-3\nDuration                                 : 2h 15mn\nBit rate                                 : 384 Kbps\nChannel(s)                               : 6 channels\nChannel positions                        : Front: L C R, Side: L R, LFE\nSampling rate                            : 48.0 KHz\nStream size                              : 373 MiB (8%)\nTitle                                    : YsB TeaM FL\nLanguage                                 : Hindi\n\nAudio #2\nID                                       : 3\nFormat                                   : AC-3\nDuration                                 : 2h 15mn\nBit rate                                 : 384 Kbps\nChannel(s)                               : 6 channels\nChannel positions                        : Front: L C R, Side: L R, LFE\nSampling rate                            : 48.0 KHz\nStream size                              : 373 MiB (8%)\nTitle                                    : YsB TeaM FL\nLanguage                                 : Tamil\n\nAudio #3\nID                                       : 4\nFormat                                   : AC-3\nDuration                                 : 2h 15mn\nBit rate                                 : 384 Kbps\nChannel(s)                               : 6 channels\nChannel positions                        : Front: L C R, Side: L R, LFE\nSampling rate                            : 48.0 KHz\nStream size                              : 373 MiB (8%)\nTitle                                    : YsB TeaM FL\nLanguage                                 : Telugu\n\nAudio #4\nID                                       : 5\nFormat                                   : AC-3\nDuration                                 : 2h 15mn\nBit rate                                 : 384 Kbps\nChannel(s)                               : 6 channels\nChannel positions                        : Front: L C R, Side: L R, LFE\nSampling rate                            : 48.0 KHz\nStream size                              : 373 MiB (8%)\nTitle                                    : YsB TeaM FL\nLanguage                                 : English\n\nText #1\nID                                       : 6\nFormat                                   : PGS\nMuxing mode                              : zlib\nCodec ID                                 : S_HDMV/PGS\nCodec ID/Info                            : The same subtitle format used on BDs/HD-DVDs\nTitle                                    : YsB TeaM FL\nLanguage                                 : English\nDefault                                  : No\nForced                                   : No\n\nText #2\nID                                       : 7\nFormat                                   : PGS\nMuxing mode                              : zlib\nCodec ID                                 : S_HDMV/PGS\nCodec ID/Info                            : The same subtitle format used on BDs/HD-DVDs\nTitle                                    : YsB TeaM FL\nLanguage                                 : Hindi\nDefault                                  : No\nForced                                   : No\n\nText #3\nID                                       : 8\nFormat                                   : PGS\nMuxing mode                              : zlib\nCodec ID                                 : S_HDMV/PGS\nCodec ID/Info                            : The same subtitle format used on BDs/HD-DVDs\nTitle                                    : YsB TeaM FL\nLanguage                                 : Tamil\nDefault                                  : No\nForced                                   : No\n\nText #4\nID                                       : 9\nFormat                                   : PGS\nMuxing mode                              : zlib\nCodec ID                                 : S_HDMV/PGS\nCodec ID/Info                            : The same subtitle format used on BDs/HD-DVDs\nTitle                                    : YsB TeaM FL\nLanguage                                 : Telugu\nDefault                                  : No\nForced                                   : No\n\nMenu\n00:00:00.000                             : en:00:00:00.000\n00:03:28.667                             : en:00:03:28.667\n00:13:31.728                             : en:00:13:31.728\n00:17:57.868                             : en:00:17:57.868\n00:22:25.302                             : en:00:22:25.302\n00:33:20.415                             : en:00:33:20.415\n00:41:27.276                             : en:00:41:27.276\n00:51:37.303                             : en:00:51:37.303\n00:58:23.959                             : en:00:58:23.959\n01:07:40.348                             : en:01:07:40.348\n01:16:22.203                             : en:01:16:22.203\n01:24:43.078                             : en:01:24:43.078\n01:32:17.699                             : en:01:32:17.699\n01:37:06.612                             : en:01:37:06.612\n01:49:13.088                             : en:01:49:13.088\n01:55:03.730                             : en:01:55:03.730\n02:01:11.055                             : en:02:01:11.055\n02:06:22.241                             : en:02:06:22.241\n\nScreenShot: &lt;a href=&quot;\nhttp://i.imgur.com/L3DpZfr.jpg&quot; rel=&quot;nofollow&quot; target=&quot;_NEW&quot;&gt;\nhttp://i.imgur.com/L3DpZfr.jpg&lt;/a&gt; &lt;a href=&quot;\nhttp://i.imgur.com/HuwJXa7.jpg&quot; rel=&quot;nofollow&quot; target=&quot;_NEW&quot;&gt;\nhttp://i.imgur.com/HuwJXa7.jpg&lt;/a&gt; &lt;a href=&quot;\nhttp://i.imgur.com/y7WLF1v.jpg&quot; rel=&quot;nofollow&quot; target=&quot;_NEW&quot;&gt;\nhttp://i.imgur.com/y7WLF1v.jpg&lt;/a&gt;\n\n\nThanks\nHDDR GPsoft.\nTeaM FL - Dj YsB, Swaraj, Hemkumar, Sajan...","torrent":{"xt":"urn:btih:0146762523942a5a7eddccd0a3ebc3a65edf7005","amp;dn":"Captain+America+The+Winter+Soldier+2014+BDRip+10800p+x264+Quad+A","amp;tr":["udp%3A%2F%2Ftracker.openbittorrent.com%3A80","udp%3A%2F%2Fopen.demonii.com%3A1337","udp%3A%2F%2Ftracker.coppersurfer.tk%3A6969","udp%3A%2F%2Fexodus.desync.com%3A6969"],"infoHash":"0146762523942a5a7eddccd0a3ebc3a65edf7005","infoHashBuffer":{"type":"Buffer","data":[1,70,118,37,35,148,42,90,126,221,204,208,163,235,195,166,94,223,112,5]},"announce":[],"urlList":[]}}